# xmcd
#
# Track frame offsets: 
#        150
#        21632
#        40835
#        62515
#        82525
#        98862
#        117455
#        139300
#        156622
#        171340
#        194797
#        215885
#
# Disc length: 3118 seconds
#
# Revision: 1
# Processed by: cddbd v1.5.2PL0 Copyright (c) Steve Scherf et al.
# Submitted via: ExactAudioCopy v0.99pb5
#
DISCID=b70c2c0c
DTITLE=Adriano Pappalardo - I Grandi Successi Originali CD1
DYEAR=2000
DGENRE=Pop
TTITLE0=E ancora giorno
TTITLE1=Una donna
TTITLE2=Segui lui
TTITLE3=Senza anima
TTITLE4=California no
TTITLE5=Un pazzo è un fiore di lillà
TTITLE6=Il bosco no
TTITLE7=Come bambini
TTITLE8=Da solo
TTITLE9=No signori
TTITLE10=Quadro lontano
TTITLE11=tu
EXTD=
EXTT0=
EXTT1=
EXTT2=
EXTT3=
EXTT4=
EXTT5=
EXTT6=
EXTT7=
EXTT8=
EXTT9=
EXTT10=
EXTT11=
PLAYORDER=
